<svg id="ejzxV0PmoEn1" xmlns="http://www.w3.org/2000/svg" xmlns:xlink="http://www.w3.org/1999/xlink" viewBox="0 0 1920 300" shape-rendering="geometricPrecision" text-rendering="geometricPrecision" width="1920" height="300">
    <g>
        <path d="M-3.759262,146.192424l87.67102,55.790649l10.868308-7.245539L194.043948,91.850883q32.604925.000001,32.604925.724554t111.943575,159.401854l30.068986-5.796431L485.31461,171.55181l46.009171-50.356495L665.728527,63.955558l55.428372.362277l80.787758,114.479514l28.257602-6.158708L935.262572,87.865836l33.691756,3.62277l54.703818,78.976373l28.926761,26.201344l80.434371,83.137472l17.772336-1.777233l96.563026-140.105251l45.615663,3.554468l124.110148,56.57527l35.840878-2.369645L1564.887047,67.128172l67.238671,2.962056l47.985308,159.951026l19.253364-3.554467L1805.702202,93.194265l36.729495,4.443084l79.226771,51.515092l1.159352,153.171264-1925.089678.175086q-1.575979-156.176984-1.487404-156.306367Z" fill="#fff" stroke-width="0"/>
        <g transform="translate(0 0.000001)">
            <line x1="51.647722" y1="-53.492284" x2="-51.647722" y2="53.492284" transform="translate(141.455698 145.839596)" fill="none" stroke="inherit" stroke-width="3"/>
            <line x1="-59.566851" y1="-85.0955" x2="59.56685" y2="85.095501" transform="translate(282.442534 172.535167)" fill="none" stroke="inherit" stroke-width="3"/>
            <line x1="-66.439948" y1="41.565879" x2="66.439948" y2="-41.565879" transform="translate(424.486561 210.173561)" fill="none" stroke="inherit" stroke-width="3"/>
            <line x1="73.149401" y1="-31.256232" x2="-73.149401" y2="31.256232" transform="translate(592.550174 95.13099)" fill="none" stroke="inherit" stroke-width="3"/>
            <line x1="46.147944" y1="64.476206" x2="-46.147944" y2="-64.476206" transform="translate(759.631916 119.841414)" fill="none" stroke="inherit" stroke-width="3"/>
            <line x1="58.527798" y1="-47.369228" x2="-58.527798" y2="47.369227" transform="translate(880.292682 131.860259)" fill="none" stroke="inherit" stroke-width="3"/>
            <line x1="-30.850166" y1="-44.634283" x2="30.850167" y2="44.634283" transform="translate(995.926108 130.438088)" fill="none" stroke="inherit" stroke-width="3"/>
            <line x1="-42.906133" y1="-43.60493" x2="42.906134" y2="43.60493" transform="translate(1093.69558 239.210341)" fill="none" stroke="inherit" stroke-width="3"/>
            <line x1="50.044054" y1="-72.609372" x2="-50.044053" y2="72.609372" transform="translate(1198.909653 208.176476)" fill="none" stroke="inherit" stroke-width="3"/>
            <line x1="71.611861" y1="32.435961" x2="-71.611861" y2="-32.435961" transform="translate(1353.732812 169.295448)" fill="none" stroke="inherit" stroke-width="3"/>
            <line x1="61.508056" y1="-71.006769" x2="-61.508056" y2="71.006769" transform="translate(1508.968551 131.238691)" fill="none" stroke="inherit" stroke-width="3"/>
            <line x1="25.373832" y1="83.308304" x2="-25.373832" y2="-83.308304" transform="translate(1655.677829 148.01355)" fill="none" stroke="inherit" stroke-width="3"/>
            <line x1="57.494463" y1="-71.86808" x2="-57.494463" y2="71.86808" transform="translate(1751.746385 160.333792)" fill="none" stroke="inherit" stroke-width="3"/>
            <line x1="78.482462" y1="50.606178" x2="-78.482461" y2="-50.606177" transform="translate(-5.517539 144.449088)" fill="none" stroke="inherit" stroke-width="3"/>
            <line x1="78.482462" y1="50.606178" x2="-78.482461" y2="-50.606177" transform="translate(1914.482461 144.449088)" fill="none" stroke="inherit" stroke-width="3"/>
            <rect width="46" height="46" rx="3" ry="3" transform="translate(186 54)"/>
            <rect width="40" height="40" rx="3" ry="3" transform="translate(331 243)"/>
            <rect width="60" height="60" rx="3" ry="3" transform="translate(475 119)"/>
            <rect width="70" height="70" rx="3" ry="3" transform="translate(654 0)"/>
            <rect width="38" height="38" rx="3" ry="3" transform="translate(795.099707 170)"/>
            <rect width="45" height="45" rx="3" ry="3" transform="translate(926.540684 50)"/>
            <rect width="36" height="36" rx="3" ry="3" transform="translate(1018.708844 164)"/>
            <rect width="25" height="25" rx="3" ry="3" transform="translate(1129 275)"/>
            <rect width="55" height="55" rx="3" ry="3" transform="translate(1242.062771 90)"/>
            <rect width="47" height="47" rx="3" ry="3" transform="translate(1409 193)"/>
            <rect width="75" height="75" rx="3" ry="3" transform="translate(1559-2.145577)"/>
            <rect width="25" height="25" rx="3" ry="3" transform="translate(1677 223)"/>
            <rect width="45" height="45" rx="3" ry="3" transform="translate(1800 55)"/>
            <rect width="32" height="32" rx="3" ry="3" transform="translate(66.999999 190)"/>
        </g>
    </g>
</svg>
